# xmcd
#
# Track frame offsets:
#	150
#	5192
#	35312
#	61680
#	82675
#	85612
#	91400
#	95513
#	112175
#	128190
#	134727
#	144786
#
# Disc length: 2268 seconds
#
# Revision: 36
# Processed by: cddbd v1.5.2PL0 Copyright (c) Steve Scherf et al.
# Submitted via: audiograbber 1.83.01
#
DISCID=9408da0c
DTITLE=Kraftwerk - Der Katalog [CD 2) - Radio-Aktivitaet [remastered 2009]
DYEAR=1975
DGENRE=Electronic
TTITLE0=Geigerzähler
TTITLE1=Radioaktivität
TTITLE2=Radioland
TTITLE3=Ätherwellen
TTITLE4=Sendepause
TTITLE5=Nachrichten
TTITLE6=Die Stimme der Energie
TTITLE7=Antenne
TTITLE8=Radio Sterne
TTITLE9=Uran
TTITLE10=Transistor
TTITLE11=Ohm Sweet Ohm
EXTD=
EXTT0=
EXTT1=
EXTT2=
EXTT3=
EXTT4=
EXTT5=
EXTT6=
EXTT7=
EXTT8=
EXTT9=
EXTT10=
EXTT11=
PLAYORDER=
